<?xml version="1.0" encoding="UTF-8"?>
<svg width="76" height="76" viewBox="0 0 76 76" xmlns="http://www.w3.org/2000/svg">
    <g id="Group">
        <path id="Path" fill="#C03319" stroke="none" d="M 71.199997 50.400002 C 68.599998 50.400002 66.400002 52.5 66.400002 55.099998 L 66.400002 66.5 L 9.4 66.5 L 9.4 9.5 L 20.799999 9.5 C 23.400002 9.5 25.599998 7.400002 25.599998 4.699997 C 25.599998 2 23.5 0 20.900002 0 L 4.799999 0 C 2.2 0 0 2.099998 0 4.800003 L 0 71.300003 C 0 73.900002 2.1 76.099998 4.799999 76.099998 L 71.300003 76.099998 C 73.900002 76.099998 76.099998 74 76.099998 71.300003 L 76.099998 55.099998 C 76 52.5 73.900002 50.400002 71.199997 50.400002 Z"/>
        <path id="path1" fill="#C03319" stroke="none" d="M 71.199997 0 L 50.5 0 C 47.900002 0 45.700001 2.099998 45.700001 4.800003 C 45.700001 7.5 47.799999 9.599998 50.5 9.599998 L 59.199997 9.599998 L 33.700001 35.599998 C 31.900002 37.5 31.900002 40.5 33.799999 42.300003 C 34.700001 43.199997 35.900002 43.699997 37.099998 43.699997 C 38.299999 43.699997 39.599998 43.199997 40.5 42.300003 L 66.5 15.800003 L 66.5 25.5 C 66.5 28.099998 68.599998 30.300003 71.300003 30.300003 C 74 30.300003 76.099998 28.199997 76.099998 25.5 L 76.099998 4.800003 C 76 2.099998 73.900002 0 71.199997 0 Z"/>
    </g>
</svg>
